<svg xmlns="http://www.w3.org/2000/svg" fill="none" viewBox="0 0 180 180"><mask id="a" width="180" height="180" x="0" y="0" maskUnits="userSpaceOnUse" style="mask-type:alpha"><circle cx="90" cy="90" r="90" fill="#fff"/></mask><g mask="url(#a)"><path fill="#000" d="M91 147c-12 0-22.3-3.6-30.8-10.9l-4.5 4.3c9.5 8.4 21.6 12.6 35.3 12.6 30.2 0 54.7-24.5 54.7-54.7 0-30.2-24.5-54.7-54.7-54.7-30.2 0-54.7 24.5-54.7 54.7 0 10.4 2.9 20 8 28.1l-4.2 4.1C32.4 105.1 29 93 29 79.9c0-34.2 27.7-61.9 61.9-61.9s61.9 27.7 61.9 61.9-27.7 61.9-61.9 61.9Z"/><path fill="#000" d="M112 116.3c-5.1 5.4-11.8 8.4-19.5 8.4-17.4 0-31.5-14.1-31.5-31.5 0-17.4 14.1-31.5 31.5-31.5 8.3 0 15.8 3.2 21.4 8.5l4.3-4.3C111.4 59 102.3 55 92.5 55c-22.3 0-40.4 18.1-40.4 40.4s18.1 40.4 40.4 40.4c9.1 0 17.5-3.1 24.2-8.4l-4.7-4.2Z"/></g></svg>